<svg xmlns="http://www.w3.org/2000/svg" viewBox="0 0 303.25 68.35"><defs><style>.cls-1{fill:#faec3b;stroke:#faec3b;stroke-miterlimit:10;}.cls-2{fill:#fff;}</style></defs><g id="Capa_2" data-name="Capa 2"><g id="Capa_1-2" data-name="Capa 1"><path class="cls-1" d="M.5,39.12v-9l32.25-17.7v9.16L9.2,34.33v.59L32.75,47.67v9.16Z"/><path class="cls-2" d="M69.35,50.67h-.53a14.14,14.14,0,0,1-4.31,5.63,11.58,11.58,0,0,1-7.24,2.1,14.36,14.36,0,0,1-6-1.24,12.17,12.17,0,0,1-4.69-3.75,18,18,0,0,1-3-6.33,33.93,33.93,0,0,1-1-8.93q0-10.2,4-15.23a13.1,13.1,0,0,1,10.72-5A11.58,11.58,0,0,1,64.51,20a14.25,14.25,0,0,1,4.31,5.62h.53V2H79V57.5h-9.6Zm-8,.08a11.7,11.7,0,0,0,3.12-.41A8.34,8.34,0,0,0,67,49.14a5.66,5.66,0,0,0,1.72-2,6.13,6.13,0,0,0,.64-2.89V32.08a6.16,6.16,0,0,0-.64-2.89,5.66,5.66,0,0,0-1.72-2A8.34,8.34,0,0,0,64.44,26a11.7,11.7,0,0,0-3.12-.41,8.24,8.24,0,0,0-6.48,2.55,10,10,0,0,0-2.29,7v6.14a10,10,0,0,0,2.29,7A8.24,8.24,0,0,0,61.32,50.75Z"/><path class="cls-2" d="M89.75,50h9.6V26.3h-9.6V18.8H109V29.45h.6a21.18,21.18,0,0,1,1.46-4,12.73,12.73,0,0,1,2.4-3.4A11.06,11.06,0,0,1,117,19.71a12.56,12.56,0,0,1,5-.91h4.2v9h-8a8.65,8.65,0,0,0-9.3,9.11V50h13.42v7.5H89.75Z"/><path class="cls-2" d="M151.47,58.4a27.81,27.81,0,0,1-11-2,17.84,17.84,0,0,1-7.28-5.36L138.8,46a16.28,16.28,0,0,0,12.75,5.47,11.81,11.81,0,0,0,5.77-1.2,3.92,3.92,0,0,0,2.18-3.67A2.91,2.91,0,0,0,158,43.7a13.07,13.07,0,0,0-3.87-1.12l-6.22-1a32.26,32.26,0,0,1-4.69-1.09,13.65,13.65,0,0,1-4-2,9.38,9.38,0,0,1-2.81-3.27,10.21,10.21,0,0,1-1.05-4.84,10.72,10.72,0,0,1,4.54-9.3q4.53-3.21,12.48-3.22a25.85,25.85,0,0,1,9.57,1.57,17.15,17.15,0,0,1,6.48,4.43l-5,5.55a14.59,14.59,0,0,0-11.33-4.57q-7.35,0-7.35,4.57a3,3,0,0,0,1.5,2.89,12.81,12.81,0,0,0,3.9,1.16l6.15,1A34.52,34.52,0,0,1,161,35.56a14.16,14.16,0,0,1,4.05,2,9.52,9.52,0,0,1,2.81,3.23,10,10,0,0,1,1,4.8A11.07,11.07,0,0,1,164.34,55Q159.72,58.4,151.47,58.4Z"/><path class="cls-2" d="M179.9,2h9.6V34.55H190l5.62-6.15,9.53-9.6h11.17L200.9,34l17,23.47H206.45l-12.38-18-4.57,4.35V57.5h-9.6Z"/><path class="cls-1" d="M225,67.85,249.65.5h8.62L233.6,67.85Z"/><path class="cls-1" d="M270.5,47.67l23.55-12.75v-.59L270.5,21.58V12.42l32.25,17.7v9L270.5,56.83Z"/></g></g></svg>